#N canvas -53 22 1361 796 10;
#X declare -lib mrpeach/udpsend;
#X declare -lib mrpeach/packOSC;
#X obj 956 571 bng 15 250 50 0 empty empty empty 17 7 0 10 -262144
-1 -1;
#X obj 956 726 bng 15 250 50 0 empty empty empty 17 7 0 10 -262144
-1 -1;
#N canvas 864 435 494 314 paperplane_connect 0;
#X obj -14 15 r osc_packer;
#X obj -14 86 packOSC;
#X obj -43 137 udpsend;
#X msg 106 133 disconnect;
#X msg 102 107 connect localhost 12345;
#X obj -189 -10 import mrpeach/udpsend;
#X obj -192 25 import mrpeach/packOSC;
#X text -203 55 send OSC packets;
#X obj 48 84 print;
#X obj 102 61 inlet;
#X connect 0 0 1 0;
#X connect 0 0 8 0;
#X connect 1 0 2 0;
#X connect 3 0 2 0;
#X connect 4 0 2 0;
#X connect 9 0 4 0;
#X coords 0 0 1 1 150 60 0;
#X restore 1037 703 pd paperplane_connect;
#X obj 1037 670 bng 15 250 50 0 empty empty empty 17 7 0 10 -262144
-1 -1;
#N canvas 709 258 666 570 paperplane_plane 0;
#X floatatom 160 259 5 0 0 0 - - -;
#X floatatom 116 260 5 0 0 0 - - -;
#X obj 116 120 vsl 15 128 0 1024 0 0 empty empty empty 0 -9 0 10 -262144
-1 -1 0 1;
#X obj 160 119 vsl 15 128 0 768 0 0 empty empty empty 0 -9 0 10 -262144
-1 -1 0 1;
#X obj 209 120 vsl 15 128 -360 360 0 0 empty empty empty 0 -9 0 10
-262144 -1 -1 0 1;
#X obj 258 120 vsl 15 128 -1 1 0 0 empty empty empty 0 -9 0 10 -262144
-1 -1 0 1;
#X floatatom 258 260 5 0 0 0 - - -;
#X floatatom 209 260 5 0 0 0 - - -;
#X obj 136 545 s osc_packer;
#X obj 161 345 t b f;
#X obj 208 346 t b f;
#X obj 258 344 t b f;
#X floatatom 344 258 5 0 0 0 - - -;
#X floatatom 300 259 5 0 0 0 - - -;
#X obj 300 119 vsl 15 128 0 1024 0 0 empty empty empty 0 -9 0 10 -262144
-1 -1 0 1;
#X obj 344 118 vsl 15 128 0 768 0 0 empty empty empty 0 -9 0 10 -262144
-1 -1 0 1;
#X obj 393 119 vsl 15 128 0 5 0 0 empty empty empty 0 -9 0 10 -262144
-1 -1 0 1;
#X floatatom 393 259 5 0 0 0 - - -;
#X obj 308 343 t b f;
#X obj 355 344 t b f;
#X obj 405 342 t b f;
#X obj 136 430 pack f f f f f f f;
#X msg 136 468 send /plane/ \$1 \$2 \$3 \$4 \$5 \$6 \$7;
#X obj 110 68 inlet;
#X obj 153 67 inlet;
#X obj 203 66 inlet;
#X obj 253 66 inlet;
#X obj 293 64 inlet;
#X text 116 101 X Y rotation zoom shadowX shadowY shadowScale;
#X obj 340 65 inlet;
#X obj 390 68 inlet;
#X obj 124 298 outlet;
#X obj 168 298 outlet;
#X obj 216 298 outlet;
#X obj 263 296 outlet;
#X obj 307 298 outlet;
#X obj 356 297 outlet;
#X obj 407 297 outlet;
#X connect 0 0 9 0;
#X connect 0 0 32 0;
#X connect 1 0 21 0;
#X connect 1 0 31 0;
#X connect 2 0 1 0;
#X connect 3 0 0 0;
#X connect 4 0 7 0;
#X connect 5 0 6 0;
#X connect 6 0 11 0;
#X connect 6 0 34 0;
#X connect 7 0 10 0;
#X connect 7 0 33 0;
#X connect 9 0 21 0;
#X connect 9 1 21 1;
#X connect 10 0 21 0;
#X connect 10 1 21 2;
#X connect 11 0 21 0;
#X connect 11 1 21 3;
#X connect 12 0 19 0;
#X connect 12 0 36 0;
#X connect 13 0 18 0;
#X connect 13 0 35 0;
#X connect 14 0 13 0;
#X connect 15 0 12 0;
#X connect 16 0 17 0;
#X connect 17 0 20 0;
#X connect 17 0 37 0;
#X connect 18 0 21 0;
#X connect 18 1 21 4;
#X connect 19 0 21 0;
#X connect 19 1 21 5;
#X connect 20 0 21 0;
#X connect 20 1 21 6;
#X connect 21 0 22 0;
#X connect 22 0 8 0;
#X connect 23 0 2 0;
#X connect 24 0 3 0;
#X connect 25 0 4 0;
#X connect 26 0 5 0;
#X connect 27 0 14 0;
#X connect 29 0 15 0;
#X connect 30 0 16 0;
#X coords 50 -1 100 1 350 180 2 100 100;
#X restore 221 316 pd paperplane_plane;
#N canvas 562 142 666 570 paperplane_world 0;
#X floatatom 160 259 5 0 0 0 - - -;
#X floatatom 116 260 5 0 0 0 - - -;
#X obj 116 120 vsl 15 128 0 1024 0 0 empty empty empty 0 -9 0 10 -262144
-1 -1 0 1;
#X obj 160 119 vsl 15 128 0 768 0 0 empty empty empty 0 -9 0 10 -262144
-1 -1 0 1;
#X obj 209 120 vsl 15 128 0 1 0 0 empty empty empty 0 -9 0 10 -262144
-1 -1 0 1;
#X obj 258 120 vsl 15 128 -0 360 0 0 empty empty empty 0 -9 0 10 -262144
-1 -1 0 1;
#X floatatom 258 260 5 0 0 0 - - -;
#X floatatom 209 260 5 0 0 0 - - -;
#X obj 236 456 s osc_packer;
#X obj 311 119 vsl 15 128 0 360 0 0 empty empty empty 0 -9 0 10 -262144
-1 -1 0 1;
#X obj 360 119 vsl 15 128 -1 360 0 0 empty empty empty 0 -9 0 10 -262144
-1 -1 0 1;
#X floatatom 360 259 5 0 0 0 - - -;
#X floatatom 311 259 5 0 0 0 - - -;
#X obj 412 118 vsl 15 128 0 5 0 0 empty empty empty 0 -9 0 10 -262144
-1 -1 0 1;
#X obj 461 118 vsl 15 128 -1 5 0 0 empty empty empty 0 -9 0 10 -262144
-1 -1 0 1;
#X floatatom 461 258 5 0 0 0 - - -;
#X floatatom 412 258 5 0 0 0 - - -;
#X floatatom 514 260 5 0 0 0 - - -;
#X obj 514 120 vsl 15 128 0 5 0 0 empty empty empty 0 -9 0 10 -262144
-1 -1 0 1;
#X obj 195 352 pack f f f f f f f f f;
#X obj 160 289 t b f;
#X obj 209 290 t b f;
#X obj 253 291 t b f;
#X obj 296 289 t b f;
#X obj 342 288 t b f;
#X obj 384 289 t b f;
#X obj 430 290 t b f;
#X obj 480 290 t b f;
#X msg 236 396 send /world/ \$1 \$2 \$3 \$4 \$5 \$6 \$7 \$8 \$9;
#X obj 102 70 inlet;
#X obj 154 71 inlet;
#X obj 208 72 inlet;
#X obj 255 71 inlet;
#X obj 303 67 inlet;
#X obj 358 66 inlet;
#X obj 410 67 inlet;
#X obj 459 66 inlet;
#X obj 511 67 inlet;
#X connect 0 0 20 0;
#X connect 1 0 19 0;
#X connect 2 0 1 0;
#X connect 3 0 0 0;
#X connect 4 0 7 0;
#X connect 5 0 6 0;
#X connect 6 0 22 0;
#X connect 7 0 21 0;
#X connect 9 0 12 0;
#X connect 10 0 11 0;
#X connect 11 0 24 0;
#X connect 12 0 23 0;
#X connect 13 0 16 0;
#X connect 14 0 15 0;
#X connect 15 0 26 0;
#X connect 16 0 25 0;
#X connect 17 0 27 0;
#X connect 18 0 17 0;
#X connect 19 0 28 0;
#X connect 20 0 19 0;
#X connect 20 1 19 1;
#X connect 21 0 19 0;
#X connect 21 1 19 2;
#X connect 22 0 19 0;
#X connect 22 1 19 3;
#X connect 23 0 19 0;
#X connect 23 1 19 4;
#X connect 24 0 19 0;
#X connect 24 1 19 5;
#X connect 25 0 19 0;
#X connect 25 1 19 6;
#X connect 26 0 19 0;
#X connect 26 1 19 7;
#X connect 27 0 19 0;
#X connect 27 1 19 8;
#X connect 28 0 8 0;
#X connect 29 0 2 0;
#X connect 30 0 3 0;
#X connect 31 0 4 0;
#X connect 32 0 5 0;
#X connect 33 0 9 0;
#X connect 34 0 10 0;
#X connect 35 0 13 0;
#X connect 36 0 14 0;
#X connect 37 0 18 0;
#X coords 50 -1 100 1 450 180 1 100 100;
#X restore 301 51 pd paperplane_world;
#N canvas 221 177 666 570 floor_world 0;
#X floatatom 160 259 5 0 0 0 - - -;
#X floatatom 116 260 5 0 0 0 - - -;
#X obj 116 120 vsl 15 128 0 5 0 0 empty empty empty 0 -9 0 10 -262144
-1 -1 0 1;
#X obj 160 119 vsl 15 128 0 360 0 0 empty empty empty 0 -9 0 10 -262144
-1 -1 0 1;
#X obj 174 458 s osc_packer;
#X obj 160 289 t b f;
#X obj 160 339 pack f f;
#X msg 174 398 send /floor/ \$1 \$2;
#X obj 109 65 inlet;
#X obj 160 64 inlet;
#X obj 80 298 outlet;
#X obj 222 297 outlet;
#X connect 0 0 5 0;
#X connect 0 0 11 0;
#X connect 1 0 6 0;
#X connect 1 0 10 0;
#X connect 2 0 1 0;
#X connect 3 0 0 0;
#X connect 5 0 6 0;
#X connect 5 1 6 1;
#X connect 6 0 7 0;
#X connect 7 0 4 0;
#X connect 8 0 2 0;
#X connect 9 0 3 0;
#X coords 50 -1 100 1 100 180 1 100 100;
#X restore 184 50 pd floor_world;
#N canvas 562 142 666 570 paperplane_wind 0;
#X floatatom 160 259 5 0 0 0 - - -;
#X floatatom 116 260 5 0 0 0 - - -;
#X obj 116 120 vsl 15 128 -0 1 0 0 empty empty empty 0 -9 0 10 -262144
-1 -1 0 1;
#X obj 160 119 vsl 15 128 0 1 0 0 empty empty empty 0 -9 0 10 -262144
-1 -1 0 1;
#X obj 208 124 vsl 15 128 0 1 0 0 empty empty empty 0 -9 0 10 -262144
-1 -1 0 1;
#X obj 258 120 vsl 15 128 -0 1 0 0 empty empty empty 0 -9 0 10 -262144
-1 -1 0 1;
#X floatatom 258 260 5 0 0 0 - - -;
#X floatatom 209 260 5 0 0 0 - - -;
#X obj 221 500 s osc_packer;
#X obj 160 329 t b f;
#X obj 209 330 t b f;
#X obj 253 331 t b f;
#X obj 195 392 pack f f f f;
#X msg 221 440 send /wind/ \$1 \$2 \$3 \$4;
#X obj 98 58 inlet;
#X obj 149 56 inlet;
#X obj 201 55 inlet;
#X obj 252 56 inlet;
#X obj 91 304 outlet;
#X obj 170 300 outlet;
#X obj 216 298 outlet;
#X obj 280 299 outlet;
#X connect 0 0 9 0;
#X connect 0 0 19 0;
#X connect 1 0 12 0;
#X connect 1 0 18 0;
#X connect 2 0 1 0;
#X connect 3 0 0 0;
#X connect 4 0 7 0;
#X connect 5 0 6 0;
#X connect 6 0 11 0;
#X connect 6 0 21 0;
#X connect 7 0 10 0;
#X connect 7 0 20 0;
#X connect 9 0 12 0;
#X connect 9 1 12 1;
#X connect 10 0 12 0;
#X connect 10 1 12 2;
#X connect 11 0 12 0;
#X connect 11 1 12 3;
#X connect 12 0 13 0;
#X connect 13 0 8 0;
#X connect 14 0 2 0;
#X connect 15 0 3 0;
#X connect 16 0 4 0;
#X connect 17 0 5 0;
#X coords 50 -1 100 1 200 180 1 100 100;
#X restore 15 316 pd paperplane_wind;
#N canvas 131 93 666 570 paperplane_birds 0;
#X floatatom 160 259 5 0 0 0 - - -;
#X floatatom 116 260 5 0 0 0 - - -;
#X obj 116 120 vsl 15 128 0 1 0 0 empty empty empty 0 -9 0 10 -262144
-1 -1 0 1;
#X obj 160 119 vsl 15 128 0 1 0 0 empty empty empty 0 -9 0 10 -262144
-1 -1 0 1;
#X obj 209 120 vsl 15 128 0 360 0 0 empty empty empty 0 -9 0 10 -262144
-1 -1 0 1;
#X obj 258 120 vsl 15 128 -1 1 0 0 empty empty empty 0 -9 0 10 -262144
-1 -1 0 1;
#X floatatom 258 260 5 0 0 0 - - -;
#X floatatom 209 260 5 0 0 0 - - -;
#X obj 136 505 s osc_packer;
#X obj 161 305 t b f;
#X obj 136 390 pack f f f f;
#X obj 208 306 t b f;
#X obj 258 304 t b f;
#X msg 136 428 send /plane/ \$1 \$2 \$3 \$4;
#X connect 0 0 9 0;
#X connect 1 0 10 0;
#X connect 2 0 1 0;
#X connect 3 0 0 0;
#X connect 4 0 7 0;
#X connect 5 0 6 0;
#X connect 6 0 12 0;
#X connect 7 0 11 0;
#X connect 9 0 10 0;
#X connect 9 1 10 1;
#X connect 10 0 13 0;
#X connect 11 0 10 0;
#X connect 11 1 10 2;
#X connect 12 0 10 0;
#X connect 12 1 10 3;
#X connect 13 0 8 0;
#X coords 50 -1 100 1 200 180 1 100 100;
#X restore 577 316 pd paperplane_birds;
#N canvas 171 169 684 445 control 1;
#X obj 117 109 hsl 50 15 0 1 0 0 empty empty empty -2 -8 0 10 -262144
-1 -1 0 1;
#X obj 188 109 hsl 50 15 1 0 0 0 empty empty empty -2 -8 0 10 -262144
-1 -1 4900 1;
#X obj 413 229 hsl 128 15 -1 1 0 0 empty empty empty -2 -8 0 10 -262144
-1 -1 6350 1;
#X obj 445 180 -;
#X floatatom 41 191 5 0 0 0 - - -;
#X floatatom 186 186 5 0 0 0 - - -;
#X obj 447 148 t b f;
#X floatatom 445 208 5 0 0 0 - - -;
#X obj 3 75 inlet;
#X obj 185 76 inlet;
#X obj 40 221 outlet;
#X obj 186 214 outlet;
#X floatatom 410 264 5 0 0 0 - - -;
#X obj 410 301 outlet;
#X floatatom 98 190 5 0 0 0 - - -;
#X obj 98 218 outlet;
#X floatatom 246 185 5 0 0 0 - - -;
#X obj 246 215 outlet;
#X obj 98 164 * 0.7;
#X obj 244 156 * 0.7;
#X connect 0 0 3 0;
#X connect 0 0 4 0;
#X connect 0 0 18 0;
#X connect 1 0 5 0;
#X connect 1 0 6 0;
#X connect 1 0 19 0;
#X connect 2 0 12 0;
#X connect 3 0 2 0;
#X connect 3 0 7 0;
#X connect 4 0 10 0;
#X connect 5 0 11 0;
#X connect 6 0 3 0;
#X connect 6 1 3 1;
#X connect 8 0 0 0;
#X connect 9 0 1 0;
#X connect 12 0 13 0;
#X connect 14 0 15 0;
#X connect 16 0 17 0;
#X connect 18 0 14 0;
#X connect 19 0 16 0;
#X coords 0 -1 1 1 150 40 2 100 100;
#X restore -130 113 pd control;
#N canvas 0 22 804 539 plane_jitter 0;
#X floatatom 251 10 5 0 0 0 - - -;
#X obj 251 -61 f 0;
#X obj 251 -24 + 1;
#X floatatom 251 93 5 0 0 0 - - -;
#X obj 255 -128 bng 15 250 50 0 empty empty empty 17 7 0 10 -262144
-1 -1;
#X obj 251 50 % 360;
#X obj 243 160 sin;
#X floatatom 278 182 5 0 0 0 - - -;
#X obj 362 92 * 6.28319;
#X obj 362 57 / 360;
#X text 544 82 2 x Pi;
#X floatatom 347 128 0 0 0 0 - - -;
#X text 544 102 Radian;
#X floatatom 280 214 5 0 0 0 - - -;
#X obj 228 236 + 500;
#X obj 254 -98 metro 200;
#X obj 374 165 cos;
#X obj 400 237 + 500;
#X floatatom 330 -116 5 0 0 0 - - -;
#X obj 223 293 outlet;
#X obj 393 289 outlet;
#X obj 235 196 * 8;
#X obj 392 203 * 8;
#X connect 0 0 5 0;
#X connect 0 0 9 0;
#X connect 1 0 2 0;
#X connect 2 0 1 1;
#X connect 2 0 0 0;
#X connect 3 0 6 0;
#X connect 4 0 15 0;
#X connect 5 0 3 0;
#X connect 6 0 7 0;
#X connect 6 0 21 0;
#X connect 8 0 11 0;
#X connect 9 0 8 0;
#X connect 11 0 6 0;
#X connect 11 0 16 0;
#X connect 14 0 19 0;
#X connect 15 0 1 0;
#X connect 16 0 22 0;
#X connect 17 0 20 0;
#X connect 18 0 15 1;
#X connect 21 0 13 0;
#X connect 21 0 14 0;
#X connect 22 0 17 0;
#X restore 898 176 pd plane_jitter;
#X floatatom 99 164 5 0 0 0 - - -;
#X obj 80 75 * -5;
#X obj 912 263 universal;
#X obj 109 126 + 4;
#X obj -161 16 r wind_left;
#X obj 1028 370 spigot;
#X obj 945 420 line;
#N canvas 591 115 849 730 wind 0;
#X obj 128 51 inlet;
#X floatatom 154 154 5 0 0 0 - - -;
#X obj 147 308 timer;
#X obj 151 219 moses 0.5;
#X obj 152 262 bng 15 250 50 0 empty empty empty 17 7 0 10 -262144
-1 -1;
#X obj 195 261 bng 15 250 50 0 empty empty empty 17 7 0 10 -262144
-1 -1;
#X floatatom 155 351 5 0 0 0 - - -;
#X floatatom 140 416 5 0 0 0 - - -;
#X floatatom 128 570 5 0 0 0 - - -;
#X obj 156 386 / 80;
#X obj 130 476 * -1;
#X obj 131 515 + 1;
#X obj 127 625 outlet;
#X obj 440 60 inlet;
#X floatatom 466 163 5 0 0 0 - - -;
#X obj 459 317 timer;
#X obj 463 228 moses 0.5;
#X obj 464 271 bng 15 250 50 0 empty empty empty 17 7 0 10 -262144
-1 -1;
#X obj 507 270 bng 15 250 50 0 empty empty empty 17 7 0 10 -262144
-1 -1;
#X floatatom 467 360 5 0 0 0 - - -;
#X floatatom 452 425 5 0 0 0 - - -;
#X floatatom 440 579 5 0 0 0 - - -;
#X obj 468 395 / 80;
#X obj 442 485 * -1;
#X obj 443 524 + 1;
#X obj 439 634 outlet;
#X connect 0 0 1 0;
#X connect 1 0 3 0;
#X connect 2 0 6 0;
#X connect 3 0 4 0;
#X connect 3 1 5 0;
#X connect 4 0 2 0;
#X connect 5 0 2 1;
#X connect 6 0 9 0;
#X connect 7 0 10 0;
#X connect 8 0 12 0;
#X connect 9 0 7 0;
#X connect 10 0 11 0;
#X connect 11 0 8 0;
#X connect 13 0 14 0;
#X connect 14 0 16 0;
#X connect 15 0 19 0;
#X connect 16 0 17 0;
#X connect 16 1 18 0;
#X connect 17 0 15 0;
#X connect 18 0 15 1;
#X connect 19 0 22 0;
#X connect 20 0 23 0;
#X connect 21 0 25 0;
#X connect 22 0 20 0;
#X connect 23 0 24 0;
#X connect 24 0 21 0;
#X restore -99 53 pd wind;
#X obj -67 17 r wind_right;
#N canvas 39 70 724 485 wind_sound 0;
#X obj 76 184 *~ 80000;
#X obj 76 208 clip~ 0 1000;
#X obj 75 161 lop~ 0.1;
#X obj 38 337 bp~ 1000 7;
#X msg 132 255 7;
#X obj 38 371 dac~;
#X obj 74 125 noise~;
#X obj 76 244 +~ 500;
#X obj 132 230 loadbang;
#X text 76 97 Wind 1;
#X floatatom 109 313 5 0 0 0 - - -;
#X floatatom 249 198 5 0 0 0 - - -;
#X floatatom 210 115 5 0 0 0 - - -;
#X floatatom 210 226 5 0 0 0 - - -;
#X floatatom 260 170 5 0 0 0 - - -;
#X obj 213 83 hsl 128 15 0 1 0 0 empty empty empty -2 -8 0 10 -262144
-1 -1 0 1;
#X obj 210 151 * 25;
#X obj 370 181 *~ 80000;
#X obj 370 205 clip~ 0 1000;
#X obj 369 158 lop~ 0.1;
#X obj 332 334 bp~ 1000 7;
#X msg 426 252 7;
#X obj 332 368 dac~;
#X obj 368 122 noise~;
#X obj 370 241 +~ 500;
#X obj 426 227 loadbang;
#X floatatom 403 310 5 0 0 0 - - -;
#X floatatom 543 195 5 0 0 0 - - -;
#X floatatom 504 112 5 0 0 0 - - -;
#X floatatom 504 223 5 0 0 0 - - -;
#X floatatom 554 167 5 0 0 0 - - -;
#X obj 506 80 hsl 128 15 0 1 0 0 empty empty empty -2 -8 0 10 -262144
-1 -1 0 1;
#X obj 504 148 * 25;
#X text 370 94 Wind 2;
#X obj 210 36 inlet;
#X obj 504 196 pow 2;
#X obj 503 35 inlet;
#X obj 40 276 vcf~ 600 7;
#X obj 334 273 vcf~ 600 7;
#X obj 210 199 pow 2;
#X obj 39 309 *~ 1;
#X obj 333 306 *~ 1;
#X obj 483 272 * 2;
#X obj 189 276 * 2;
#X connect 0 0 1 0;
#X connect 1 0 7 0;
#X connect 2 0 0 0;
#X connect 3 0 5 0;
#X connect 4 0 37 2;
#X connect 6 0 2 0;
#X connect 6 0 37 0;
#X connect 7 0 37 1;
#X connect 8 0 4 0;
#X connect 10 0 40 1;
#X connect 11 0 39 1;
#X connect 12 0 16 0;
#X connect 12 0 43 0;
#X connect 13 0 7 1;
#X connect 15 0 12 0;
#X connect 16 0 14 0;
#X connect 16 0 39 0;
#X connect 17 0 18 0;
#X connect 18 0 24 0;
#X connect 19 0 17 0;
#X connect 20 0 22 1;
#X connect 21 0 38 2;
#X connect 23 0 19 0;
#X connect 23 0 38 0;
#X connect 24 0 38 1;
#X connect 25 0 21 0;
#X connect 26 0 41 1;
#X connect 27 0 35 1;
#X connect 28 0 32 0;
#X connect 28 0 42 0;
#X connect 29 0 24 1;
#X connect 31 0 28 0;
#X connect 32 0 30 0;
#X connect 32 0 35 0;
#X connect 34 0 15 0;
#X connect 35 0 29 0;
#X connect 36 0 31 0;
#X connect 37 0 40 0;
#X connect 38 0 41 0;
#X connect 39 0 13 0;
#X connect 40 0 3 0;
#X connect 41 0 20 0;
#X connect 42 0 26 0;
#X connect 43 0 10 0;
#X restore -146 250 pd wind_sound;
#X obj -161 88 s w;
#X connect 0 0 1 0;
#X connect 3 0 2 0;
#X connect 9 0 20 0;
#X connect 9 0 7 0;
#X connect 9 1 7 1;
#X connect 9 2 20 1;
#X connect 9 2 7 2;
#X connect 9 3 7 3;
#X connect 12 0 14 0;
#X connect 14 0 6 0;
#X connect 14 0 11 0;
#X connect 15 0 18 0;
#X connect 18 0 9 0;
#X connect 18 0 21 0;
#X connect 18 1 9 1;
#X connect 19 0 18 1;
